# xmcd
#
# Track frame offsets:
#	183
#	17950
#	41325
#	62385
#	79775
#	99425
#	116155
#	131168
#	146128
#	161645
#	192353
#	208645
#
# Disc length: 2910 seconds
#
# Revision: 3
# Processed by: cddbd v1.4PL0 Copyright (c) Steve Scherf et al.
# Submitted via: audiograbber 1.81.03
#
DISCID=a80b5c0c
DTITLE=Larry McCray - Ambition
DYEAR=1990
DGENRE=Blues
TTITLE0=Ambition
TTITLE1=Count on me for love
TTITLE2=Me and my baby
TTITLE3=One more lonely night
TTITLE4=Frustrated  baby
TTITLE5=keep on walking
TTITLE6=Sally's got a friend in New York City
TTITLE7=I don't mind
TTITLE8=Nobody never hurt nobody with the blues
TTITLE9=Country Girl
TTITLE10=Secret lover
TTITLE11=The sun rises in the east
EXTD=
EXTT0=
EXTT1=
EXTT2=
EXTT3=
EXTT4=
EXTT5=
EXTT6=
EXTT7=
EXTT8=
EXTT9=
EXTT10=
EXTT11=
PLAYORDER=
